<svg xmlns="http://www.w3.org/2000/svg" viewBox="0 0 46.11 45.15"><defs><style>.cls-1,.cls-3{fill:#06b131;}.cls-2{fill:#fff;}.cls-3{stroke:#fff;stroke-miterlimit:10;stroke-width:1.15px;}</style></defs><g id="Calque_4" data-name="Calque 4"><polygon class="cls-1" points="7.38 13.71 6.2 37.92 22.76 44.84 39.91 38.22 39.32 13.64 23.16 19.82 7.38 13.71"/><polygon class="cls-2" points="7.38 13.71 23.16 7.46 39.32 13.64 23.16 19.82 7.38 13.71"/><polygon class="cls-3" points="7.38 13.71 1.2 20.85 17.83 27.69 23.16 19.82 7.38 13.71"/><polygon class="cls-3" points="27.91 27.69 44.76 21.34 39.32 13.64 23.16 19.82 27.91 27.69"/><polygon class="cls-1" points="1.37 6.99 7.55 14.42 23.33 8.16 18.3 0.36 1.37 6.99"/><polygon class="cls-1" points="23.33 8.16 28.23 0.37 44.94 7.14 39.1 14.35 23.33 8.16"/></g></svg>