<svg xmlns="http://www.w3.org/2000/svg" viewBox="0 0 50 50"><defs><style>.cls-1{fill:#06b131;}</style></defs><g id="Calque_5" data-name="Calque 5"><path class="cls-1" d="M42.38,23.21c0,.29,0,.57,0,.85v20.5H31.08c0-.53-.08-1-.08-1.46,0-2.61-.05-5.24,0-7.85,0-1.26-.48-1.69-1.69-1.66-2.61,0-5.24,0-7.85,0-1.85,0-1.91.08-1.91,2,0,1.33,0,2.66,0,4v5H9V43c0-6.57,0-13.14,0-19.7,0-.38.27.24,0-.14.36-.37,1.55-1.94,1.91-2.3,5.07-5.09,8.69-10,13.88-15.18.48.44.83.76,1.16,1.09Q34.14,15,42.38,23.21Z"/></g></svg>