<svg xmlns="http://www.w3.org/2000/svg" width="36.794" height="12">
  <g fill-rule="evenodd">
    <path fill="#0A0B09" d="M2.868 0H0v10.098h3.011c2.884 0 4.86-1.626 4.86-5.095S5.894 0 2.867 0zm2.597 5.003c0 2.416-1.1 3.252-2.725 3.252h-.382V1.843h.382c1.625 0 2.725.743 2.725 3.16zM8.507 0h2.438l.318 5.374c.016.868.032 1.626.048 2.54h.064c.143-.914.334-1.688.51-2.54l.7-2.818h1.498l.653 2.818c.176.837.35 1.611.51 2.54h.064c.016-.929.032-1.703.064-2.54L15.66 0h2.278l-1.274 10.098h-2.517l-.606-3.129c-.127-.635-.254-1.316-.286-1.92h-.048a21.305 21.305 0 01-.27 1.92l-.606 3.129H9.893L8.507 0m10.419 0h2.453l1.02 3.578.35 1.394h.064l.35-1.394L24.184 0h2.454v10.098H24.66V6.969c0-1.13.207-3.593.303-4.677h-.048l-.796 2.695-.797 2.432h-1.147l-.813-2.432-.748-2.695h-.048c.111 1.084.303 3.547.303 4.677v3.129h-1.944V0"/>
    <path fill="#FBDB1C" d="M29.56 12h7.234v-1.902H29.56V12z"/>
  </g>
</svg>
